HIERARCHY
ROOT root
{
	OFFSET	0	13.1	24.9
	CHANNELS 6  Xposition Yposition Zposition Xrotation Yrotation Zrotation
	JOINT spine_1
	{
		OFFSET	0	9.99999	0
		CHANNELS 3  Xrotation Yrotation Zrotation
		JOINT spine_2
		{
			OFFSET	0	112	-10
			CHANNELS 3  Xrotation Yrotation Zrotation
			JOINT spine_3
			{
				OFFSET	0	206.5	19.3
				CHANNELS 3  Xrotation Yrotation Zrotation
				JOINT spine_4
				{
					OFFSET	0	110.4	14.6
					CHANNELS 3  Xrotation Yrotation Zrotation
					JOINT neck_1
					{
						OFFSET	0	71.8	-50.3
						CHANNELS 3  Xrotation Yrotation Zrotation
						JOINT neck_2
						{
							OFFSET	0	86.2	-25.8
							CHANNELS 3  Xrotation Yrotation Zrotation
							JOINT head_ee
							{
								OFFSET	0	179.8	-8.7
								CHANNELS 3  Xrotation Yrotation Zrotation
								End Site
								{
									OFFSET	1	0	0
								}
							}
						}
					}
					JOINT left_clavicle
					{
						OFFSET	-43.2	22.4	-70.8
						CHANNELS 3  Xrotation Yrotation Zrotation
						JOINT left_shoulder
						{
							OFFSET	-93.9	-5.79999	48.7
							CHANNELS 3  Xrotation Yrotation Zrotation
							JOINT left_elbow
							{
								OFFSET	-291.4	-30.8	15.2
								CHANNELS 3  Xrotation Yrotation Zrotation
								JOINT left_lowarm_twist
								{
									OFFSET	-110.7	-3.89999	13.6
									CHANNELS 3  Xrotation Yrotation Zrotation
									JOINT left_hand
									{
										OFFSET	-110.7	-3.89999	13.6
										CHANNELS 3  Xrotation Yrotation Zrotation
										JOINT left_ee
										{
											OFFSET	-80.8	-5.10001	12.1
											CHANNELS 3  Xrotation Yrotation Zrotation
											End Site
											{
												OFFSET	1	0	0
											}
										}
									}
								}
							}
						}
					}
					JOINT right_clavicle
					{
						OFFSET	43.2	22.4	-70.8
						CHANNELS 3  Xrotation Yrotation Zrotation
						JOINT right_shoulder
						{
							OFFSET	93.9	-5.79999	48.7
							CHANNELS 3  Xrotation Yrotation Zrotation
							JOINT right_elbow
							{
								OFFSET	291.4	-30.8	15.2
								CHANNELS 3  Xrotation Yrotation Zrotation
								JOINT right_lowarm_twist
								{
									OFFSET	110.7	-3.89999	13.6
									CHANNELS 3  Xrotation Yrotation Zrotation
									JOINT right_hand
									{
										OFFSET	110.7	-3.89999	13.6
										CHANNELS 3  Xrotation Yrotation Zrotation
										JOINT right_ee
										{
											OFFSET	80.8	-5.10001	12.1
											CHANNELS 3  Xrotation Yrotation Zrotation
											End Site
											{
												OFFSET	1	0	0
											}
										}
									}
								}
							}
						}
					}
				}
			}
		}
	}
	JOINT left_hip
	{
		OFFSET	-82.8	-127.5	0.300001
		CHANNELS 3  Xrotation Yrotation Zrotation
		JOINT left_knee
		{
			OFFSET	-28.2	-396.7	2.2
			CHANNELS 3  Xrotation Yrotation Zrotation
			JOINT left_ankle
			{
				OFFSET	-11.7	-411.3	35.4
				CHANNELS 3  Xrotation Yrotation Zrotation
				JOINT left_toes
				{
					OFFSET	0	-60	-88.6
					CHANNELS 3  Xrotation Yrotation Zrotation
					JOINT left_foot_ee
					{
						OFFSET	-22.5	-16.5	-42.2
						CHANNELS 3  Xrotation Yrotation Zrotation
						End Site
						{
							OFFSET	1	0	0
						}
					}
				}
			}
		}
	}
	JOINT right_hip
	{
		OFFSET	82.8	-127.5	0.300001
		CHANNELS 3  Xrotation Yrotation Zrotation
		JOINT right_knee
		{
			OFFSET	28.2	-396.7	2.2
			CHANNELS 3  Xrotation Yrotation Zrotation
			JOINT right_ankle
			{
				OFFSET	11.7	-411.3	35.4
				CHANNELS 3  Xrotation Yrotation Zrotation
				JOINT right_toes
				{
					OFFSET	0	-60	-88.6
					CHANNELS 3  Xrotation Yrotation Zrotation
					JOINT right_foot_ee
					{
						OFFSET	22.5	-16.5	-42.2
						CHANNELS 3  Xrotation Yrotation Zrotation
						End Site
						{
							OFFSET	1	0	0
						}
					}
				}
			}
		}
	}
}
MOTION
Frames: 15
Frame Time: 0.02
3301.48 764.187 -407.857 -166.891 -58.1745 -159.343 5.38747 -0.826649 -4.81499 5.40021 -0.518954 -4.8577 5.43171 0.0509136 -4.88501 5.39915 -0.720306 -4.83201 -11.2255 6.85209 3.21526 -11.251 10.8526 4.94731 -0.0 0.0 -0.0 6.28534 18.3686 11.762 -23.8405 -19.9304 68.1671 1.02486 -26.9157 0.245256 -13.6986 -0.678761 1.61049 -0.463198 23.646 6.75234 -0.0 0.0 -0.0 1.43417 15.4315 -1.23125 -31.5784 27.1575 -63.7154 0.992539 26.1816 -0.230809 -35.8205 2.51803 -3.74461 0.376132 1.2981 -1.97201 0.0 0.0 0.0 7.34298 16.3528 -7.03666 7.21086 -0.363343 -1.04571 18.1791 -6.16497 -2.57275 -18.5706 0.0 0.0 -0.0 0.0 -0.0 12.8419 -3.68344 -5.47513 -1.28395 -0.0507337 -0.190504 1.62894 6.8036 0.245974 -22.6226 0.0 0.0 0.0 0.0 0.0 
3300.15 763.724 -398.907 -166.933 -57.7541 -159.355 5.60873 -0.843246 -4.81051 5.62144 -0.535802 -4.85427 5.65355 0.0147652 -4.88366 5.62108 -0.755792 -4.82499 -12.4256 5.96621 3.88009 -12.429 8.86054 5.43413 -0.0 0.0 -0.0 5.59496 17.4908 10.7175 -24.0242 -20.2143 69.3627 0.942189 -25.0196 0.209052 -11.7393 -0.558286 1.39063 -0.223611 23.9485 8.25058 -0.0 0.0 -0.0 1.95552 15.9105 -2.29024 -30.1957 27.7244 -63.9226 0.967106 25.5975 -0.219704 -37.3852 2.67747 -3.86661 -0.0552997 0.413293 0.543947 0.0 0.0 0.0 7.6816 15.2701 -7.91253 5.98991 -0.292583 -0.871927 18.0678 -6.31185 -2.55991 -18.1326 0.0 0.0 -0.0 0.0 -0.0 12.9211 -4.62497 -6.27851 -1.60033 -0.0625773 -0.237613 2.64891 6.98679 0.399188 -21.949 0.0 0.0 0.0 0.0 0.0 
3303.31 763.216 -391.014 -167.157 -57.254 -159.883 5.86065 -0.974384 -4.73304 5.87286 -0.671588 -4.78528 5.9152 -0.150537 -4.82973 5.88382 -0.910546 -4.7457 -13.1396 5.43516 5.19629 -13.0963 7.09605 6.57905 -0.0 0.0 -0.0 4.94211 16.1826 9.71162 -25.9405 -20.0393 71.0238 0.782263 -21.1818 0.14627 -9.90358 -0.45231 1.18105 -0.0356135 23.1139 9.0291 -0.0 0.0 -0.0 2.27384 16.0999 -2.94855 -29.1174 27.8802 -63.8647 0.970499 25.6758 -0.221172 -38.451 2.78795 -3.9472 -0.385175 -0.463011 2.37448 0.0 0.0 0.0 7.55929 15.8243 -8.01672 5.35186 -0.257088 -0.780533 20.4031 -6.54696 -2.86085 -17.3398 0.0 0.0 -0.0 0.0 -0.0 12.5988 -5.15164 -6.64288 -1.81061 -0.0703055 -0.268961 3.72006 6.65511 0.557972 -21.554 0.0 0.0 0.0 0.0 0.0 
3304.55 761.814 -385.396 -167.813 -55.9356 -160.655 6.01265 -0.662091 -4.91075 6.02599 -0.348656 -4.94283 6.04076 0.17787 -4.95189 6.00707 -0.605455 -4.91804 -13.3813 5.42022 6.61675 -13.2836 6.21153 7.93703 -0.0 0.0 -0.0 4.382 14.7345 8.81257 -26.7796 -20.6695 72.7201 0.690721 -18.8891 0.114901 -7.76318 -0.337325 0.932608 0.212317 24.3532 10.92 -0.0 0.0 -0.0 3.08796 15.3507 -4.74908 -29.4735 27.758 -61.9782 0.95688 25.361 -0.215305 -40.5578 3.01068 -4.10043 -0.994107 -2.17733 5.69032 0.0 0.0 0.0 11.801 15.3015 -10.1451 -4.01549 0.144377 0.599216 23.9332 -5.94317 -3.28618 -15.309 0.0 0.0 -0.0 0.0 -0.0 12.1018 -5.59199 -7.13127 -1.94929 -0.0753385 -0.289648 7.81227 7.58379 1.16135 -21.5062 0.0 0.0 0.0 0.0 0.0 
3306.33 761.476 -378.341 -167.972 -54.9938 -161.013 6.14472 -0.547523 -4.95203 6.15833 -0.231702 -4.97675 6.16246 0.287626 -4.97384 6.1283 -0.500521 -4.95699 -13.5226 5.4581 7.68457 -13.3777 5.64046 8.96849 -0.0 0.0 -0.0 4.11221 13.8682 8.36201 -27.8054 -21.1798 74.2947 0.61235 -16.8748 0.0908333 -6.28579 -0.263421 0.758733 0.383647 25.2454 12.2203 -0.0 0.0 -0.0 3.69084 14.6735 -6.08744 -29.6927 27.6304 -60.7706 0.949725 25.195 -0.212249 -42.0424 3.17094 -4.20345 -1.43933 -3.42532 8.09959 0.0 0.0 0.0 13.9808 15.0732 -11.3518 -11.1486 0.29611 1.68262 26.3709 -5.28317 -3.56289 -13.9384 0.0 0.0 -0.0 0.0 -0.0 11.9937 -6.05106 -7.70322 -2.13977 -0.0821701 -0.318082 10.8256 8.2055 1.59635 -21.4211 0.0 0.0 0.0 0.0 0.0 
3307.53 761.376 -371.29 -167.999 -54.976 -160.799 6.30916 -0.563778 -4.95136 6.32276 -0.247966 -4.97711 6.32768 0.257039 -4.97666 6.29353 -0.531169 -4.95495 -13.5291 7.01965 7.79519 -13.4074 8.55354 9.54684 -0.0 0.0 -0.0 3.91225 12.9415 8.01411 -27.8406 -21.7796 75.28 0.492673 -13.7154 0.0592514 -5.28198 -0.215782 0.639547 -0.14243 25.7261 9.3785 -0.0 0.0 -0.0 3.87621 14.4143 -6.50205 -29.7096 28.0771 -60.4444 0.971182 25.6915 -0.221468 -43.4678 3.32728 -4.29845 -1.9522 -5.05383 10.7667 0.0 0.0 0.0 14.7529 15.5575 -12.4089 -13.8057 0.317994 2.08969 27.5176 -2.78015 -3.66364 -14.7302 0.0 0.0 -0.0 0.0 -0.0 12.5749 -6.471 -8.17421 -4.98331 -0.172862 -0.745013 10.3757 7.5009 1.52738 -21.6335 0.0 0.0 0.0 0.0 0.0 
3306.69 760.634 -367.153 -166.758 -55.6091 -159.95 6.47651 -0.693022 -4.8665 6.4896 -0.38233 -4.90062 6.50555 0.0998123 -4.91447 6.4725 -0.676652 -4.8688 -13.7746 5.70478 8.48902 -13.5937 5.65474 9.81779 -0.0 0.0 -0.0 3.87695 11.5073 7.92181 -29.0431 -21.8907 75.8327 0.486395 -13.5472 0.057772 -4.56128 -0.182873 0.553477 0.537847 26.4983 13.5231 -0.0 0.0 -0.0 4.46132 14.1682 -7.76229 -29.3788 27.5837 -59.8002 0.991745 26.1635 -0.230459 -43.8588 3.37058 -4.32382 -1.9863 -4.96202 11.0388 0.0 0.0 0.0 16.466 14.8744 -12.916 -17.1639 0.31862 2.60485 29.2518 -3.66534 -3.86457 -12.7344 0.0 0.0 -0.0 0.0 -0.0 12.1131 -6.68847 -8.48936 -2.77487 -0.104264 -0.413048 12.2812 7.18678 1.79173 -21.5772 0.0 0.0 0.0 0.0 0.0 
3310.57 759.657 -362.733 -166.73 -55.2872 -159.88 6.49545 -0.533765 -4.94058 6.509 -0.218697 -4.96445 6.51072 0.269092 -4.96198 6.47675 -0.516958 -4.94236 -13.8403 5.61233 9.00243 -13.6306 5.17276 10.2787 -0.0 0.0 -0.0 3.52721 11.6937 7.33237 -29.7062 -22.4656 76.4052 0.450033 -12.5678 0.0495563 -4.0345 -0.159506 0.490311 0.561492 26.7938 13.7539 -0.0 0.0 -0.0 4.91085 13.8188 -8.74229 -29.1571 27.7734 -59.39 0.977077 25.8272 -0.22403 -44.2421 3.41318 -4.34841 -2.2163 -5.73376 12.2074 0.0 0.0 0.0 17.3846 14.3577 -13.4732 -19.2309 0.303997 2.92165 29.9694 -3.36143 -3.93851 -12.3421 0.0 0.0 -0.0 0.0 -0.0 11.977 -6.94295 -8.53691 -3.60587 -0.131579 -0.537656 12.5983 8.81769 1.85036 -21.486 0.0 0.0 0.0 0.0 0.0 
3309.72 761.841 -361.389 -166.116 -56.6397 -159.155 6.37864 -0.654196 -4.97101 6.39232 -0.336957 -5.00246 6.40466 0.163988 -5.01109 6.37019 -0.628478 -4.97432 -12.7888 6.22012 8.40199 -12.6163 6.51961 9.83806 -0.0 0.0 -0.0 3.83337 11.1384 7.83778 -30.0844 -22.6464 76.7963 0.405861 -11.3681 0.0403963 -3.6222 -0.141623 0.440727 0.641189 27.2282 14.3474 -0.0 0.0 -0.0 4.94511 13.778 -8.81795 -29.75 27.5982 -58.9288 0.977567 25.8385 -0.224244 -44.7275 3.46738 -4.37915 -2.47677 -5.92407 13.8657 0.0 0.0 0.0 16.6086 14.4801 -13.2066 -17.5296 0.316866 2.66093 30.7582 -3.25263 -4.0212 -12.2877 0.0 0.0 -0.0 0.0 -0.0 12.1496 -7.22231 -8.54694 -4.39921 -0.155966 -0.656966 12.8847 8.78645 1.88987 -21.2629 0.0 0.0 0.0 0.0 0.0 
3310.05 762.358 -355.844 -165.577 -56.5994 -158.455 6.36334 -0.498288 -4.92945 6.37684 -0.183997 -4.9511 6.37611 0.314088 -4.94457 6.34231 -0.469783 -4.93224 -14.6741 5.19425 8.84141 -14.4699 4.62042 10.0335 -0.0 0.0 -0.0 3.832 11.2782 7.83917 -30.4088 -22.6822 76.6124 0.387829 -10.8753 0.0369179 -3.64537 -0.142619 0.443517 0.689318 26.6687 14.4469 -0.0 0.0 -0.0 5.19618 13.6262 -9.36175 -31.173 27.3388 -58.5444 1.0104 26.5885 -0.238749 -44.8468 3.48073 -4.38663 -2.50961 -6.16582 13.9661 0.0 0.0 0.0 17.6473 13.887 -14.037 -20.2746 0.292273 3.08136 31.2852 -1.88071 -4.06199 -12.9339 0.0 0.0 -0.0 0.0 -0.0 12.525 -6.67371 -8.73157 -5.04079 -0.174477 -0.753688 13.2443 9.20621 1.94394 -21.3961 0.0 0.0 0.0 0.0 0.0 
3314.56 761.785 -353.399 -165.611 -57.2833 -158.475 6.43323 -0.645292 -4.87669 6.44639 -0.33405 -4.90777 6.45837 0.152799 -4.91673 6.4252 -0.624682 -4.87937 -14.4029 4.88445 8.18911 -14.228 4.37634 9.30815 -0.0 0.0 -0.0 3.77349 11.6045 7.74815 -30.9806 -23.8499 76.486 0.337882 -9.50211 0.0280822 -4.02821 -0.15923 0.489556 0.30563 27.3294 12.4766 -0.0 0.0 -0.0 4.83989 14.4309 -8.54637 -30.8615 27.3723 -59.3026 1.08985 28.3629 -0.275407 -45.3467 3.53688 -4.41768 -2.60768 -6.61216 14.4023 0.0 0.0 0.0 15.5256 13.1315 -13.2655 -16.8796 0.319737 2.56125 30.3534 -1.70914 -3.96224 -13.8851 0.0 0.0 -0.0 0.0 -0.0 12.8562 -7.29423 -8.60634 -6.89352 -0.221833 -1.03406 13.0246 8.14482 1.90312 -20.0302 0.0 0.0 0.0 0.0 0.0 
3319.86 763.157 -350.23 -166.46 -56.842 -158.962 6.54569 -0.650104 -4.93877 6.55919 -0.334918 -4.97002 6.57076 0.148311 -4.97906 6.53675 -0.638922 -4.94022 -13.6682 5.21614 7.42313 -13.5327 5.36354 8.65418 -0.0 0.0 -0.0 3.89173 12.8014 7.97684 -32.2329 -23.2168 75.5922 0.312207 -8.79181 0.0240006 -3.0646 -0.118009 0.373469 0.475989 26.6946 13.2333 -0.0 0.0 -0.0 5.17614 14.9518 -9.22392 -32.4023 27.1478 -58.6445 1.05544 27.6013 -0.259259 -45.3728 3.53982 -4.41929 -2.81419 -7.08906 15.5534 0.0 0.0 0.0 16.9243 12.489 -14.2963 -21.2036 0.279391 3.22333 31.5072 -0.927942 -4.07638 -13.1879 0.0 0.0 -0.0 0.0 -0.0 13.0839 -7.3439 -8.47648 -9.13188 -0.266914 -1.37456 12.4118 9.12475 1.8273 -20.5884 0.0 0.0 0.0 0.0 0.0 
3319.47 760.887 -346.406 -166.523 -56.0837 -158.726 6.5301 -0.645602 -4.92754 6.54354 -0.331136 -4.95854 6.55485 0.152356 -4.96722 6.521 -0.633065 -4.92917 -14.7426 4.69291 6.53192 -14.6422 5.06021 7.69833 -0.0 0.0 -0.0 4.12172 13.8835 8.37791 -32.9789 -23.4015 74.5568 0.304639 -8.5819 0.0228576 -2.99357 -0.115048 0.364886 0.367198 25.8735 12.3379 -0.0 0.0 -0.0 5.07254 15.3415 -8.9737 -31.6901 27.351 -59.2244 1.07971 28.1396 -0.270606 -45.8669 3.59559 -4.44947 -3.05724 -7.25168 17.1205 0.0 0.0 0.0 16.0202 11.6193 -14.4156 -19.5902 0.300289 2.97666 31.6929 0.847496 -4.08241 -13.4241 0.0 0.0 -0.0 0.0 -0.0 13.9562 -7.75366 -8.90679 -10.8535 -0.292516 -1.63748 13.326 8.96002 1.95275 -19.6061 0.0 0.0 0.0 0.0 0.0 
3317.34 761.833 -336.766 -165.02 -56.7702 -157.017 6.56625 -0.682381 -4.77694 6.57886 -0.377389 -4.81058 6.59409 0.0884325 -4.82452 6.56226 -0.673734 -4.77817 -15.5354 5.75344 6.2343 -15.4729 7.37301 7.81756 -0.0 0.0 -0.0 4.45035 13.4363 8.91827 -33.5047 -24.008 73.0957 0.272647 -7.69208 0.0183294 -1.99535 -0.0745649 0.243877 0.166929 25.5269 11.0707 -0.0 0.0 -0.0 5.38214 13.54 -9.76271 -32.2696 27.274 -59.0797 1.14018 29.4573 -0.29974 -47.3858 3.76864 -4.53924 -3.46101 -8.26313 19.3389 0.0 0.0 0.0 12.8552 9.69626 -13.8897 -12.6607 0.310879 1.91416 29.4538 3.60854 -3.83327 -15.4175 0.0 0.0 -0.0 0.0 -0.0 14.4721 -7.49304 -9.58037 -11.9857 -0.305041 -1.81075 14.1513 10.9626 2.08931 -18.1291 0.0 0.0 0.0 0.0 0.0 
3312.68 762.349 -330.887 -163.647 -56.3231 -155.675 6.73893 -0.654689 -4.69038 6.7511 -0.355242 -4.72244 6.76394 0.0879669 -4.73494 6.73327 -0.660095 -4.68963 -15.7597 5.75442 5.48477 -15.7302 7.84018 7.13244 -0.0 0.0 -0.0 4.11676 14.5263 8.37775 -33.0802 -22.9407 71.7628 0.264731 -7.47129 0.0172848 -1.30929 -0.0479681 0.160316 0.194891 25.5886 11.2524 -0.0 0.0 -0.0 5.52912 13.9664 -10.0464 -33.3198 27.169 -59.2139 1.19409 30.604 -0.326722 -49.0 3.95506 -4.62958 -3.84713 -8.86137 21.6766 0.0 0.0 0.0 10.5427 8.57295 -13.3599 -6.13705 0.203594 0.919404 27.8513 6.97097 -3.65425 -16.6936 0.0 0.0 -0.0 0.0 -0.0 15.5919 -7.81265 -9.70041 -12.1448 -0.306527 -1.83511 14.3753 12.344 2.13817 -17.9248 0.0 0.0 0.0 0.0 0.0 
